# xmcd
#
# Track frame offsets:
#   150
#   13160
#   26001
#   38884
#   53042
#   65731
#   76563
#   90545
#   102830
#   116449
#   128687
#   142806
#   153947
#   171995
#   187693
#   207314
#   219491
#   235110
#   243351
#
# Disc length: 3480 seconds
#
# Revision: 0
# Processed by: cddbd v1.5.2PL0 Copyright (c) Steve Scherf et al.
# Submitted via: uFREEDB ActiveX Control 1.5
#
DISCID=ef0d9613
DTITLE=Pretinho dos teclados  - O melhor do bailão O pretinho dos teclados
DYEAR=1900
DGENRE=Country
TTITLE0=Besta de paixão
TTITLE1=Estrela Perdida
TTITLE2=Ligação urbana
TTITLE3=Ela chorou de amor
TTITLE4=Tá nervoso vai pescar
TTITLE5=Bom bom com mel
TTITLE6=Amaremos
TTITLE7=O amor que eu sonhei
TTITLE8=Hoje eu quebro essa mesa
TTITLE9=Menina linda
TTITLE10=Ei psiu
TTITLE11=Pó da roupa
TTITLE12=Quero te dar minha roupa
TTITLE13=Aperte o play
TTITLE14=Estou perdendo você
TTITLE15=Liberando o Toim
TTITLE16=Forró doidão
TTITLE17=Perereca da vizinha
TTITLE18=Me deixa louco
EXTD=
EXTT0=
EXTT1=
EXTT2=
EXTT3=
EXTT4=
EXTT5=
EXTT6=
EXTT7=
EXTT8=
EXTT9=
EXTT10=
EXTT11=
EXTT12=
EXTT13=
EXTT14=
EXTT15=
EXTT16=
EXTT17=
EXTT18=
PLAYORDER=
